<mxfile host="app.diagrams.net" agent="Mozilla/5.0 (X11; Linux x86_64) AppleWebKit/537.36 (KHTML, like Gecko) Chrome/137.0.0.0 Safari/537.36" version="27.1.5">
  <diagram name="PÃ¡gina-1" id="er-diagram">
    <mxGraphModel dx="1211" dy="1119" grid="1" gridSize="10" guides="1" tooltips="1" connect="1" arrows="1" fold="1" page="1" pageScale="1" pageWidth="827" pageHeight="1169" math="0" shadow="0">
      <root>
        <mxCell id="0" />
        <mxCell id="1" parent="0" />
        <mxCell id="marca" value="Marca" style="whiteSpace=wrap;html=1;align=center;" parent="1" vertex="1">
          <mxGeometry x="10" y="75" width="120" height="40" as="geometry" />
        </mxCell>
        <mxCell id="modelo" value="Modelo" style="whiteSpace=wrap;html=1;align=center;" parent="1" vertex="1">
          <mxGeometry x="220" y="60" width="120" height="40" as="geometry" />
        </mxCell>
        <mxCell id="generacion" value="Generacion" style="whiteSpace=wrap;html=1;align=center;" parent="1" vertex="1">
          <mxGeometry x="400" y="60" width="120" height="40" as="geometry" />
        </mxCell>
        <mxCell id="motorizacion" value="Motorizacion" style="whiteSpace=wrap;html=1;align=center;" parent="1" vertex="1">
          <mxGeometry x="600" y="60" width="120" height="40" as="geometry" />
        </mxCell>
        <mxCell id="vehiculo" value="Vehiculo" style="whiteSpace=wrap;html=1;align=center;" parent="1" vertex="1">
          <mxGeometry x="770" y="320" width="120" height="40" as="geometry" />
        </mxCell>
        <mxCell id="imagenes" value="Imagenes" style="whiteSpace=wrap;html=1;align=center;" parent="1" vertex="1">
          <mxGeometry x="1080" y="150" width="120" height="40" as="geometry" />
        </mxCell>
        <mxCell id="tiempos_circuito" value="Tiempos_Circuito" style="whiteSpace=wrap;html=1;align=center;" parent="1" vertex="1">
          <mxGeometry x="1050" y="520" width="120" height="40" as="geometry" />
        </mxCell>
        <mxCell id="usuarios" value="Usuarios" style="whiteSpace=wrap;html=1;align=center;" parent="1" vertex="1">
          <mxGeometry x="210" y="940" width="120" height="40" as="geometry" />
        </mxCell>
        <mxCell id="favoritos" value="Favoritos" style="whiteSpace=wrap;html=1;align=center;" parent="1" vertex="1">
          <mxGeometry x="350" y="400" width="120" height="40" as="geometry" />
        </mxCell>
        <mxCell id="listas" value="Listas" style="whiteSpace=wrap;html=1;align=center;" parent="1" vertex="1">
          <mxGeometry x="170" y="800" width="120" height="40" as="geometry" />
        </mxCell>
        <mxCell id="vehiculos_listas" value="Vehiculos_Listas" style="whiteSpace=wrap;html=1;align=center;" parent="1" vertex="1">
          <mxGeometry x="570" y="800" width="140" height="40" as="geometry" />
        </mxCell>
        <mxCell id="marca_id" value="id_marca (PK)" style="ellipse;whiteSpace=wrap;html=1;align=center;" parent="1" vertex="1">
          <mxGeometry x="20" y="30" width="90" height="30" as="geometry" />
        </mxCell>
        <mxCell id="marca_nombre" value="nombre" style="ellipse;whiteSpace=wrap;html=1;align=center;" parent="1" vertex="1">
          <mxGeometry y="140" width="90" height="30" as="geometry" />
        </mxCell>
        <mxCell id="modelo_id" value="id_modelo (PK)" style="ellipse;whiteSpace=wrap;html=1;align=center;" parent="1" vertex="1">
          <mxGeometry x="200" y="30" width="90" height="30" as="geometry" />
        </mxCell>
        <mxCell id="modelo_id_marca" value="id_marca (FK)" style="ellipse;whiteSpace=wrap;html=1;align=center;" parent="1" vertex="1">
          <mxGeometry x="170" y="170" width="90" height="30" as="geometry" />
        </mxCell>
        <mxCell id="modelo_nombre" value="nombre" style="ellipse;whiteSpace=wrap;html=1;align=center;" parent="1" vertex="1">
          <mxGeometry x="280" y="170" width="90" height="30" as="geometry" />
        </mxCell>
        <mxCell id="generacion_id" value="id_generacion (PK)" style="ellipse;whiteSpace=wrap;html=1;align=center;" parent="1" vertex="1">
          <mxGeometry x="400" y="30" width="90" height="30" as="geometry" />
        </mxCell>
        <mxCell id="generacion_id_modelo" value="id_modelo (FK)" style="ellipse;whiteSpace=wrap;html=1;align=center;" parent="1" vertex="1">
          <mxGeometry x="400" y="90" width="90" height="30" as="geometry" />
        </mxCell>
        <mxCell id="generacion_nombre" value="nombre" style="ellipse;whiteSpace=wrap;html=1;align=center;" parent="1" vertex="1">
          <mxGeometry x="400" y="130" width="90" height="30" as="geometry" />
        </mxCell>
        <mxCell id="motorizacion_id" value="id_motorizacion (PK)" style="ellipse;whiteSpace=wrap;html=1;align=center;" parent="1" vertex="1">
          <mxGeometry x="615" width="95" height="40" as="geometry" />
        </mxCell>
        <mxCell id="motorizacion_id_generacion" value="id_generacion (FK)" style="ellipse;whiteSpace=wrap;html=1;align=center;" parent="1" vertex="1">
          <mxGeometry x="680" y="120" width="100" height="50" as="geometry" />
        </mxCell>
        <mxCell id="motorizacion_nombre" value="nombre" style="ellipse;whiteSpace=wrap;html=1;align=center;" parent="1" vertex="1">
          <mxGeometry x="580" y="130" width="90" height="30" as="geometry" />
        </mxCell>
        <mxCell id="vehiculo_id" value="id_vehiculo (PK)" style="ellipse;whiteSpace=wrap;html=1;align=center;" parent="1" vertex="1">
          <mxGeometry x="720" y="270" width="90" height="30" as="geometry" />
        </mxCell>
        <mxCell id="vehiculo_id_motorizacion" value="id_motorizacion (FK)" style="ellipse;whiteSpace=wrap;html=1;align=center;" parent="1" vertex="1">
          <mxGeometry x="860" y="270" width="90" height="30" as="geometry" />
        </mxCell>
        <mxCell id="vehiculo_anio" value="anio" style="ellipse;whiteSpace=wrap;html=1;align=center;" parent="1" vertex="1">
          <mxGeometry x="840" y="430" width="90" height="30" as="geometry" />
        </mxCell>
        <mxCell id="imagenes_id" value="id_imagen (PK)" style="ellipse;whiteSpace=wrap;html=1;align=center;" parent="1" vertex="1">
          <mxGeometry x="1175" width="95" height="40" as="geometry" />
        </mxCell>
        <mxCell id="imagenes_id_vehiculo" value="id_vehiculo (FK)" style="ellipse;whiteSpace=wrap;html=1;align=center;" parent="1" vertex="1">
          <mxGeometry x="1170" y="85" width="100" height="35" as="geometry" />
        </mxCell>
        <mxCell id="tiempos_id" value="id_tiempo (PK)" style="ellipse;whiteSpace=wrap;html=1;align=center;" parent="1" vertex="1">
          <mxGeometry x="1160" y="340" width="100" height="40" as="geometry" />
        </mxCell>
        <mxCell id="tiempos_id_vehiculo" value="id_vehiculo (FK)" style="ellipse;whiteSpace=wrap;html=1;align=center;" parent="1" vertex="1">
          <mxGeometry x="1160" y="490" width="100" height="40" as="geometry" />
        </mxCell>
        <mxCell id="usuarios_id" value="id_usuario (PK)" style="ellipse;whiteSpace=wrap;html=1;align=center;" parent="1" vertex="1">
          <mxGeometry x="110" y="370" width="90" height="30" as="geometry" />
        </mxCell>
        <mxCell id="usuarios_email" value="email" style="ellipse;whiteSpace=wrap;html=1;align=center;" parent="1" vertex="1">
          <mxGeometry x="110" y="450" width="90" height="30" as="geometry" />
        </mxCell>
        <mxCell id="favoritos_id" value="id_favorito (PK)" style="ellipse;whiteSpace=wrap;html=1;align=center;" parent="1" vertex="1">
          <mxGeometry x="350" y="370" width="90" height="30" as="geometry" />
        </mxCell>
        <mxCell id="favoritos_id_usuario" value="id_usuario (FK)" style="ellipse;whiteSpace=wrap;html=1;align=center;" parent="1" vertex="1">
          <mxGeometry x="350" y="450" width="90" height="30" as="geometry" />
        </mxCell>
        <mxCell id="favoritos_id_vehiculo" value="id_vehiculo (FK)" style="ellipse;whiteSpace=wrap;html=1;align=center;" parent="1" vertex="1">
          <mxGeometry x="440" y="450" width="90" height="30" as="geometry" />
        </mxCell>
        <mxCell id="listas_id" value="id_lista (PK)" style="ellipse;whiteSpace=wrap;html=1;align=center;" parent="1" vertex="1">
          <mxGeometry x="550" y="900" width="90" height="30" as="geometry" />
        </mxCell>
        <mxCell id="listas_id_usuario" value="id_usuario (FK)" style="ellipse;whiteSpace=wrap;html=1;align=center;" parent="1" vertex="1">
          <mxGeometry x="660" y="900" width="90" height="30" as="geometry" />
        </mxCell>
        <mxCell id="vehiculos_listas_id_lista" value="id_lista (FK)" style="ellipse;whiteSpace=wrap;html=1;align=center;" parent="1" vertex="1">
          <mxGeometry x="350" y="490" width="90" height="30" as="geometry" />
        </mxCell>
        <mxCell id="vehiculos_listas_id_vehiculo" value="id_vehiculo (FK)" style="ellipse;whiteSpace=wrap;html=1;align=center;" parent="1" vertex="1">
          <mxGeometry x="440" y="490" width="90" height="30" as="geometry" />
        </mxCell>
        <mxCell id="rel_marca_modelo" value="" style="shape=rhombus;perimeter=rhombusPerimeter;whiteSpace=wrap;html=1;align=center;" parent="1" vertex="1">
          <mxGeometry x="150" y="60" width="30" height="30" as="geometry" />
        </mxCell>
        <mxCell id="rel_modelo_generacion" value="" style="shape=rhombus;perimeter=rhombusPerimeter;whiteSpace=wrap;html=1;align=center;" parent="1" vertex="1">
          <mxGeometry x="340" y="60" width="30" height="30" as="geometry" />
        </mxCell>
        <mxCell id="rel_generacion_motorizacion" value="" style="shape=rhombus;perimeter=rhombusPerimeter;whiteSpace=wrap;html=1;align=center;" parent="1" vertex="1">
          <mxGeometry x="520" y="60" width="30" height="30" as="geometry" />
        </mxCell>
        <mxCell id="rel_motorizacion_vehiculo" value="" style="shape=rhombus;perimeter=rhombusPerimeter;whiteSpace=wrap;html=1;align=center;" parent="1" vertex="1">
          <mxGeometry x="815" y="45" width="30" height="30" as="geometry" />
        </mxCell>
        <mxCell id="rel_vehiculo_imagenes" value="" style="shape=rhombus;perimeter=rhombusPerimeter;whiteSpace=wrap;html=1;align=center;" parent="1" vertex="1">
          <mxGeometry x="990" y="155" width="30" height="30" as="geometry" />
        </mxCell>
        <mxCell id="rel_vehiculo_tiempos" value="" style="shape=rhombus;perimeter=rhombusPerimeter;whiteSpace=wrap;html=1;align=center;" parent="1" vertex="1">
          <mxGeometry x="1095" y="390" width="30" height="30" as="geometry" />
        </mxCell>
        <mxCell id="rel_usuarios_favoritos" value="" style="shape=rhombus;perimeter=rhombusPerimeter;whiteSpace=wrap;html=1;align=center;" parent="1" vertex="1">
          <mxGeometry x="230" y="400" width="30" height="30" as="geometry" />
        </mxCell>
        <mxCell id="rel_vehiculo_favoritos" value="" style="shape=rhombus;perimeter=rhombusPerimeter;whiteSpace=wrap;html=1;align=center;" parent="1" vertex="1">
          <mxGeometry x="470" y="400" width="30" height="30" as="geometry" />
        </mxCell>
        <mxCell id="rel_usuarios_listas" value="" style="shape=rhombus;perimeter=rhombusPerimeter;whiteSpace=wrap;html=1;align=center;" parent="1" vertex="1">
          <mxGeometry x="110" y="670" width="30" height="30" as="geometry" />
        </mxCell>
        <mxCell id="rel_listas_vehiculos_listas" value="" style="shape=rhombus;perimeter=rhombusPerimeter;whiteSpace=wrap;html=1;align=center;" parent="1" vertex="1">
          <mxGeometry x="250" y="520" width="30" height="30" as="geometry" />
        </mxCell>
        <mxCell id="rel_vehiculo_vehiculos_listas" value="" style="shape=rhombus;perimeter=rhombusPerimeter;whiteSpace=wrap;html=1;align=center;" parent="1" vertex="1">
          <mxGeometry x="490" y="520" width="30" height="30" as="geometry" />
        </mxCell>
        <mxCell id="blUPkUUthR0JGVOvZdOs-1" style="edgeStyle=orthogonalEdgeStyle;endArrow=none;html=1;" parent="1" source="marca" target="rel_marca_modelo" edge="1">
          <mxGeometry relative="1" as="geometry" />
        </mxCell>
        <mxCell id="blUPkUUthR0JGVOvZdOs-2" style="edgeStyle=orthogonalEdgeStyle;endArrow=none;html=1;" parent="1" source="rel_marca_modelo" target="modelo" edge="1">
          <mxGeometry relative="1" as="geometry" />
        </mxCell>
        <mxCell id="blUPkUUthR0JGVOvZdOs-3" value="1:N" style="text;html=1;align=center;verticalAlign=middle;resizable=0;points=[];autosize=1;strokeColor=none;fillColor=none;" parent="1" vertex="1">
          <mxGeometry x="180" y="40" width="40" height="20" as="geometry" />
        </mxCell>
        <mxCell id="blUPkUUthR0JGVOvZdOs-4" style="edgeStyle=orthogonalEdgeStyle;endArrow=none;html=1;" parent="1" source="modelo" target="rel_modelo_generacion" edge="1">
          <mxGeometry relative="1" as="geometry" />
        </mxCell>
        <mxCell id="blUPkUUthR0JGVOvZdOs-5" style="edgeStyle=orthogonalEdgeStyle;endArrow=none;html=1;" parent="1" source="rel_modelo_generacion" target="generacion" edge="1">
          <mxGeometry relative="1" as="geometry" />
        </mxCell>
        <mxCell id="blUPkUUthR0JGVOvZdOs-6" value="1:N" style="text;html=1;align=center;verticalAlign=middle;resizable=0;points=[];autosize=1;strokeColor=none;fillColor=none;" parent="1" vertex="1">
          <mxGeometry x="360" y="40" width="40" height="20" as="geometry" />
        </mxCell>
        <mxCell id="blUPkUUthR0JGVOvZdOs-7" style="edgeStyle=orthogonalEdgeStyle;endArrow=none;html=1;" parent="1" source="generacion" target="rel_generacion_motorizacion" edge="1">
          <mxGeometry relative="1" as="geometry" />
        </mxCell>
        <mxCell id="blUPkUUthR0JGVOvZdOs-8" style="edgeStyle=orthogonalEdgeStyle;endArrow=none;html=1;" parent="1" source="rel_generacion_motorizacion" target="motorizacion" edge="1">
          <mxGeometry relative="1" as="geometry" />
        </mxCell>
        <mxCell id="blUPkUUthR0JGVOvZdOs-9" value="1:N" style="text;html=1;align=center;verticalAlign=middle;resizable=0;points=[];autosize=1;strokeColor=none;fillColor=none;" parent="1" vertex="1">
          <mxGeometry x="540" y="40" width="40" height="20" as="geometry" />
        </mxCell>
        <mxCell id="blUPkUUthR0JGVOvZdOs-10" style="edgeStyle=orthogonalEdgeStyle;endArrow=none;html=1;" parent="1" source="motorizacion" target="rel_motorizacion_vehiculo" edge="1">
          <mxGeometry relative="1" as="geometry">
            <Array as="points">
              <mxPoint x="660" y="50" />
              <mxPoint x="730" y="50" />
              <mxPoint x="730" y="100" />
              <mxPoint x="735" y="100" />
            </Array>
          </mxGeometry>
        </mxCell>
        <mxCell id="blUPkUUthR0JGVOvZdOs-11" style="edgeStyle=orthogonalEdgeStyle;endArrow=none;html=1;" parent="1" source="rel_motorizacion_vehiculo" target="vehiculo" edge="1">
          <mxGeometry relative="1" as="geometry" />
        </mxCell>
        <mxCell id="blUPkUUthR0JGVOvZdOs-12" value="1:N" style="text;html=1;align=center;verticalAlign=middle;resizable=0;points=[];autosize=1;strokeColor=none;fillColor=none;" parent="1" vertex="1">
          <mxGeometry x="740" y="40" width="40" height="20" as="geometry" />
        </mxCell>
        <mxCell id="blUPkUUthR0JGVOvZdOs-13" style="edgeStyle=orthogonalEdgeStyle;endArrow=none;html=1;" parent="1" source="vehiculo" target="rel_vehiculo_imagenes" edge="1">
          <mxGeometry relative="1" as="geometry">
            <Array as="points">
              <mxPoint x="975" y="330" />
            </Array>
          </mxGeometry>
        </mxCell>
        <mxCell id="blUPkUUthR0JGVOvZdOs-14" style="edgeStyle=orthogonalEdgeStyle;endArrow=none;html=1;" parent="1" source="rel_vehiculo_imagenes" target="imagenes" edge="1">
          <mxGeometry relative="1" as="geometry" />
        </mxCell>
        <mxCell id="blUPkUUthR0JGVOvZdOs-15" value="1:N" style="text;html=1;align=center;verticalAlign=middle;resizable=0;points=[];autosize=1;strokeColor=none;fillColor=none;" parent="1" vertex="1">
          <mxGeometry x="1000" y="10" width="40" height="20" as="geometry" />
        </mxCell>
        <mxCell id="blUPkUUthR0JGVOvZdOs-16" style="edgeStyle=orthogonalEdgeStyle;endArrow=none;html=1;" parent="1" source="vehiculo" target="rel_vehiculo_tiempos" edge="1">
          <mxGeometry relative="1" as="geometry">
            <Array as="points">
              <mxPoint x="1110" y="350" />
            </Array>
          </mxGeometry>
        </mxCell>
        <mxCell id="blUPkUUthR0JGVOvZdOs-17" style="edgeStyle=orthogonalEdgeStyle;endArrow=none;html=1;" parent="1" source="rel_vehiculo_tiempos" target="tiempos_circuito" edge="1">
          <mxGeometry relative="1" as="geometry" />
        </mxCell>
        <mxCell id="blUPkUUthR0JGVOvZdOs-18" value="1:N" style="text;html=1;align=center;verticalAlign=middle;resizable=0;points=[];autosize=1;strokeColor=none;fillColor=none;" parent="1" vertex="1">
          <mxGeometry x="1000" y="120" width="40" height="20" as="geometry" />
        </mxCell>
        <mxCell id="blUPkUUthR0JGVOvZdOs-19" style="edgeStyle=orthogonalEdgeStyle;endArrow=none;html=1;" parent="1" source="usuarios" target="rel_usuarios_favoritos" edge="1">
          <mxGeometry relative="1" as="geometry" />
        </mxCell>
        <mxCell id="blUPkUUthR0JGVOvZdOs-20" style="edgeStyle=orthogonalEdgeStyle;endArrow=none;html=1;" parent="1" source="rel_usuarios_favoritos" target="favoritos" edge="1">
          <mxGeometry relative="1" as="geometry" />
        </mxCell>
        <mxCell id="blUPkUUthR0JGVOvZdOs-21" value="1:N" style="text;html=1;align=center;verticalAlign=middle;resizable=0;points=[];autosize=1;strokeColor=none;fillColor=none;" parent="1" vertex="1">
          <mxGeometry x="270" y="380" width="40" height="20" as="geometry" />
        </mxCell>
        <mxCell id="blUPkUUthR0JGVOvZdOs-22" style="edgeStyle=orthogonalEdgeStyle;endArrow=none;html=1;" parent="1" source="vehiculo" target="rel_vehiculo_favoritos" edge="1">
          <mxGeometry relative="1" as="geometry" />
        </mxCell>
        <mxCell id="blUPkUUthR0JGVOvZdOs-23" style="edgeStyle=orthogonalEdgeStyle;endArrow=none;html=1;" parent="1" source="rel_vehiculo_favoritos" target="favoritos" edge="1">
          <mxGeometry relative="1" as="geometry" />
        </mxCell>
        <mxCell id="blUPkUUthR0JGVOvZdOs-24" value="1:N" style="text;html=1;align=center;verticalAlign=middle;resizable=0;points=[];autosize=1;strokeColor=none;fillColor=none;" parent="1" vertex="1">
          <mxGeometry x="470" y="380" width="40" height="20" as="geometry" />
        </mxCell>
        <mxCell id="blUPkUUthR0JGVOvZdOs-25" style="edgeStyle=orthogonalEdgeStyle;endArrow=none;html=1;" parent="1" source="usuarios" target="rel_usuarios_listas" edge="1">
          <mxGeometry relative="1" as="geometry" />
        </mxCell>
        <mxCell id="blUPkUUthR0JGVOvZdOs-26" style="edgeStyle=orthogonalEdgeStyle;endArrow=none;html=1;" parent="1" source="rel_usuarios_listas" target="listas" edge="1">
          <mxGeometry relative="1" as="geometry" />
        </mxCell>
        <mxCell id="blUPkUUthR0JGVOvZdOs-27" value="1:N" style="text;html=1;align=center;verticalAlign=middle;resizable=0;points=[];autosize=1;strokeColor=none;fillColor=none;" parent="1" vertex="1">
          <mxGeometry x="150" y="500" width="40" height="20" as="geometry" />
        </mxCell>
        <mxCell id="blUPkUUthR0JGVOvZdOs-28" style="edgeStyle=orthogonalEdgeStyle;endArrow=none;html=1;" parent="1" source="listas" target="rel_listas_vehiculos_listas" edge="1">
          <mxGeometry relative="1" as="geometry" />
        </mxCell>
        <mxCell id="blUPkUUthR0JGVOvZdOs-29" style="edgeStyle=orthogonalEdgeStyle;endArrow=none;html=1;" parent="1" source="rel_listas_vehiculos_listas" target="vehiculos_listas" edge="1">
          <mxGeometry relative="1" as="geometry" />
        </mxCell>
        <mxCell id="blUPkUUthR0JGVOvZdOs-30" value="1:N" style="text;html=1;align=center;verticalAlign=middle;resizable=0;points=[];autosize=1;strokeColor=none;fillColor=none;" parent="1" vertex="1">
          <mxGeometry x="290" y="500" width="40" height="20" as="geometry" />
        </mxCell>
        <mxCell id="blUPkUUthR0JGVOvZdOs-31" style="edgeStyle=orthogonalEdgeStyle;endArrow=none;html=1;" parent="1" source="vehiculo" target="rel_vehiculo_vehiculos_listas" edge="1">
          <mxGeometry relative="1" as="geometry" />
        </mxCell>
        <mxCell id="blUPkUUthR0JGVOvZdOs-32" style="edgeStyle=orthogonalEdgeStyle;endArrow=none;html=1;" parent="1" source="rel_vehiculo_vehiculos_listas" target="vehiculos_listas" edge="1">
          <mxGeometry relative="1" as="geometry" />
        </mxCell>
        <mxCell id="blUPkUUthR0JGVOvZdOs-33" value="1:N" style="text;html=1;align=center;verticalAlign=middle;resizable=0;points=[];autosize=1;strokeColor=none;fillColor=none;" parent="1" vertex="1">
          <mxGeometry x="470" y="500" width="40" height="20" as="geometry" />
        </mxCell>
      </root>
    </mxGraphModel>
  </diagram>
</mxfile>
